<svg width="52" height="52" viewBox="0 0 52 52" fill="none" xmlns="http://www.w3.org/2000/svg">
<circle cx="26" cy="26" r="26" fill="#E6F2EA"/>
<path d="M18.0066 25.8811C18.0066 25.1537 18.2223 24.4542 18.6231 23.8619C18.4914 23.4371 18.4234 22.9919 18.4234 22.5507C18.4234 20.6482 19.6233 18.9907 21.363 18.3685C21.5181 16.9499 22.4286 15.7292 23.7117 15.145C23.0522 14.0784 22.0114 13.4531 21.0518 13.6085C20.3584 13.7211 19.7838 14.1919 19.4461 14.9025C18.8384 14.6234 18.2063 14.577 17.6521 14.7718C17.0523 14.9829 16.5865 15.4342 16.3049 16.0768C15.9315 16.9278 15.931 18.0231 16.2921 19.0645C15.8055 19.3983 15.4417 19.889 15.2291 20.5042C14.8716 21.5372 14.9909 22.7835 15.5562 23.9251C15.6181 24.0496 15.6857 24.1733 15.7595 24.2947C15.2287 24.6397 14.8314 25.1511 14.6183 25.7751C14.2798 26.7653 14.4296 27.932 15.0294 28.9752C15.3047 29.4544 15.6694 29.8885 16.0941 30.2453C15.9522 30.8389 16.0596 31.4912 16.4053 32.0816C16.8884 32.9053 17.7586 33.464 18.6885 33.558C19.9341 35.8969 21.4394 37.0902 23.5923 38.1241C21.0346 35.1029 19.6123 32.6006 19.5323 28.8272C18.5909 28.1555 18.0066 27.0519 18.0066 25.8811Z" fill="#28B446"/>
<path d="M37.6864 22.4312C37.7217 20.7115 36.7109 19.1645 35.1445 18.4958C34.916 17.0283 33.7324 15.8814 32.2615 15.687C32.2482 15.5409 32.2204 15.3951 32.1784 15.2512C31.9189 14.3661 31.138 13.6997 30.2359 13.5928C29.6458 13.5226 29.088 13.6705 28.627 13.9943C28.216 13.7227 27.7373 13.576 27.2467 13.576C25.9831 13.576 24.933 14.5088 24.75 15.7215C23.3051 16.013 22.2218 17.2995 22.2218 18.8045C22.2218 18.8854 22.2254 18.9662 22.2316 19.0483C20.5564 19.3495 19.3056 20.8038 19.3056 22.5514C19.3056 23.0566 19.4148 23.5574 19.6243 24.018C19.1536 24.5211 18.8893 25.1831 18.8893 25.8817C18.8893 26.9258 19.4895 27.8726 20.4119 28.3284C20.3713 32.3309 21.8302 34.7608 24.6766 38.0351L24.837 38.2175L24.8662 38.2506C25.2976 38.7342 25.9186 39 26.6156 39C26.7362 39 26.8551 38.9899 26.9723 38.9749L26.8211 38.6816C25.8713 36.4244 25.2883 34.4203 24.963 32.6387C23.7374 32.2616 23.2075 31.2829 23.184 31.2379C23.07 31.0224 23.1535 30.7547 23.3692 30.6412C23.5836 30.5277 23.8501 30.6099 23.9655 30.8241C23.9818 30.8545 24.239 31.3068 24.8017 31.615C24.6479 30.4593 24.6032 29.4038 24.6479 28.4525C24.6426 28.4044 24.6448 28.3571 24.6558 28.3085C24.7327 26.9487 24.9811 25.7978 25.3091 24.8333C23.82 23.9461 23.6362 22.2943 23.7644 21.4928C23.8028 21.2521 24.03 21.0856 24.2704 21.1262C24.5113 21.1646 24.6753 21.3903 24.6377 21.6306C24.6267 21.7017 24.4282 23.1666 25.6339 23.9907C25.694 23.8515 25.7546 23.7133 25.8174 23.5839C26.9798 21.1867 28.6412 19.9939 29.2843 19.6004C29.2829 18.7158 29.8633 17.9473 29.8907 17.9116C30.0387 17.7177 30.3172 17.6815 30.5099 17.829C30.7035 17.9769 30.7406 18.2538 30.593 18.4473C30.4944 18.578 30.3008 18.9035 30.2142 19.2616C31.2321 19.1464 32.2257 19.7205 32.2761 19.7505C32.4869 19.8746 32.5563 20.1453 32.4325 20.3551C32.3499 20.4947 32.2022 20.5724 32.0515 20.5724C31.9751 20.5724 31.8982 20.553 31.8279 20.5115C31.5198 20.3317 30.5819 19.9347 29.9393 20.2421C29.8275 20.299 29.0752 20.7036 28.2191 21.5961C29.9724 21.4685 31.1919 21.9887 31.2533 22.0152C31.4765 22.1137 31.5782 22.3743 31.4805 22.5973C31.4076 22.7625 31.2454 22.8614 31.0752 22.8614C31.0164 22.8614 30.9563 22.8499 30.8988 22.8243C30.8657 22.8102 29.3705 22.191 27.3886 22.603C26.9917 23.1608 26.6098 23.8295 26.2934 24.6262C26.2925 24.6845 26.2806 24.7436 26.2549 24.8002C26.2381 24.8377 26.2156 24.8704 26.1908 24.9004C25.9394 25.5889 25.7365 26.3631 25.6145 27.2376C26.6138 26.6113 27.8744 26.5839 27.9464 26.5831H27.9517C28.193 26.5831 28.3897 26.7765 28.3932 27.0185C28.3968 27.2623 28.2014 27.4623 27.9579 27.4663C27.9393 27.4668 26.1206 27.5092 25.5018 28.5633C25.4585 29.6405 25.5332 30.8431 25.763 32.1812C25.7652 32.1914 25.7665 32.2015 25.7679 32.2121C26.0772 33.9959 26.6589 36.0146 27.6229 38.3062L27.8332 38.7117C28.1577 38.5483 28.437 38.3221 28.6363 38.0439C28.9691 37.5793 29.0478 37.0158 28.8569 36.4571C28.0578 34.1142 28.0825 32.3265 28.9302 31.1429C30.029 29.6082 32.3176 29.379 33.5834 29.379C34.2354 29.379 34.6831 29.4391 34.6875 29.44L35.1419 29.5018L35.1874 29.046C35.1936 28.986 35.324 27.563 34.493 26.5963C34.4449 26.5402 34.394 26.4872 34.3419 26.4364C34.5766 26.3839 34.8086 26.3092 35.0367 26.213C36.6119 25.5492 37.6523 24.0644 37.6864 22.4312Z" fill="#28B446"/>
</svg>
